solid
facet normal -0.9562523066368684 -0.16861308202478364 -0.2390630766592202
 outer loop
  vertex -54.5 3.087718699218149e-14 18.0
  vertex -50.0 3.6139460187578685e-13 0.0
  vertex -51.21324783283202 -18.640097811248918 18.0
 endloop
endfacet
facet normal 0.9562523066368692 0.1686130820247839 -0.2390630766592173
 outer loop
  vertex 50.0 -1.2246467991473532e-14 0.0
  vertex 51.21324783283202 18.640097811248925 18.0
  vertex 54.5 -1.334865011070615e-14 18.0
 endloop
endfacet
facet normal 0.956252306636869 -0.16861308202478434 -0.23906307665921728
 outer loop
  vertex 51.21324783283201 -18.64009781124894 18.0
  vertex 50.0 -1.2246467991473532e-14 0.0
  vertex 54.5 -1.334865011070615e-14 18.0
 endloop
endfacet
facet normal -0.9562523066368696 0.1686130820247855 -0.23906307665921428
 outer loop
  vertex -51.21324783283198 18.640097811249 18.0
  vertex -50.0 3.6139460187578685e-13 0.0
  vertex -54.5 3.087718699218149e-14 18.0
 endloop
endfacet
facet normal -0.9473217039849858 -0.18843400280977746 -0.2589869026496662
 outer loop
  vertex -50.0 3.6139460187578685e-13 0.0
  vertex -46.193976625564495 -19.13417161825411 0.0
  vertex -51.21324783283202 -18.640097811248918 18.0
 endloop
endfacet
facet normal 0.9473217039849832 -0.18843400280978506 -0.25898690264966984
 outer loop
  vertex 46.193976625564325 -19.13417161825452 0.0
  vertex 50.0 -1.2246467991473532e-14 0.0
  vertex 51.21324783283201 -18.64009781124894 18.0
 endloop
endfacet
facet normal 0.9473217039849838 0.18843400280978398 -0.2589869026496692
 outer loop
  vertex 50.0 -1.2246467991473532e-14 0.0
  vertex 46.19397662556436 19.13417161825444 0.0
  vertex 51.21324783283202 18.640097811248925 18.0
 endloop
endfacet
facet normal -0.9473217039849818 0.18843400280979095 -0.25898690264967134
 outer loop
  vertex -46.19397662556422 19.13417161825478 0.0
  vertex -50.0 3.6139460187578685e-13 0.0
  vertex -51.21324783283198 18.640097811249 18.0
 endloop
endfacet
facet normal -0.7995489011163031 -0.5342414956977555 -0.2744222640354411
 outer loop
  vertex -46.193976625564495 -19.13417161825411 0.0
  vertex -35.3553390593276 -35.35533905932715 0.0
  vertex -41.74942214998434 -35.031924727916355 18.0
 endloop
endfacet
facet normal 0.7995489011163 0.5342414956977598 -0.2744222640354419
 outer loop
  vertex 46.19397662556436 19.13417161825444 0.0
  vertex 35.35533905932744 35.355339059327314 0.0
  vertex 41.74942214998433 35.03192472791636 18.0
 endloop
endfacet
facet normal 0.7995489011162984 -0.5342414956977619 -0.2744222640354427
 outer loop
  vertex 35.35533905932731 -35.35533905932745 0.0
  vertex 46.193976625564325 -19.13417161825452 0.0
  vertex 41.74942214998429 -35.031924727916405 18.0
 endloop
endfacet
facet normal -0.7995489011162954 0.5342414956977658 -0.2744222640354435
 outer loop
  vertex -35.355339059327164 35.355339059327584 0.0
  vertex -46.19397662556422 19.13417161825478 0.0
  vertex -41.74942214998425 35.031924727916454 18.0
 endloop
endfacet
facet normal -0.8443998049405204 -0.4875144546860758 -0.2220779725424142
 outer loop
  vertex -51.21324783283202 -18.640097811248918 18.0
  vertex -46.193976625564495 -19.13417161825411 0.0
  vertex -41.74942214998434 -35.031924727916355 18.0
 endloop
endfacet
facet normal 0.8443998049405207 0.48751445468607635 -0.2220779725424118
 outer loop
  vertex 51.21324783283202 18.640097811248925 18.0
  vertex 46.19397662556436 19.13417161825444 0.0
  vertex 41.74942214998433 35.03192472791636 18.0
 endloop
endfacet
facet normal 0.8443998049405204 -0.4875144546860772 -0.22207797254241132
 outer loop
  vertex 41.74942214998429 -35.031924727916405 18.0
  vertex 46.193976625564325 -19.13417161825452 0.0
  vertex 51.21324783283201 -18.64009781124894 18.0
 endloop
endfacet
facet normal -0.8443998049405202 0.48751445468607807 -0.22207797254240952
 outer loop
  vertex -41.74942214998425 35.031924727916454 18.0
  vertex -46.19397662556422 19.13417161825478 0.0
  vertex -51.21324783283198 18.640097811249 18.0
 endloop
endfacet
facet normal -0.5325932628621265 -0.7970821463562641 -0.2846128393343579
 outer loop
  vertex -35.3553390593276 -35.35533905932715 0.0
  vertex -19.134171618254722 -46.19397662556424 0.0
  vertex -27.250000000000025 -47.19838450625189 18.0
 endloop
endfacet
facet normal 0.5325932628621236 0.7970821463562658 -0.2846128393343582
 outer loop
  vertex 35.35533905932744 35.355339059327314 0.0
  vertex 19.134171618254612 46.19397662556429 0.0
  vertex 27.25000000000006 47.19838450625188 18.0
 endloop
endfacet
facet normal 0.532593262862119 -0.7970821463562686 -0.2846128393343593
 outer loop
  vertex 19.134171618254296 -46.19397662556442 0.0
  vertex 35.35533905932731 -35.35533905932745 0.0
  vertex 27.249999999999964 -47.19838450625193 18.0
 endloop
endfacet
facet normal -0.5325932628621174 0.7970821463562697 -0.28461283933435905
 outer loop
  vertex -19.134171618254257 46.19397662556443 0.0
  vertex -35.355339059327164 35.355339059327584 0.0
  vertex -27.24999999999995 47.198384506251934 18.0
 endloop
endfacet
facet normal -0.6284824500716972 -0.7489962177553556 -0.20979627198796647
 outer loop
  vertex -41.74942214998434 -35.031924727916355 18.0
  vertex -35.3553390593276 -35.35533905932715 0.0
  vertex -27.250000000000025 -47.19838450625189 18.0
 endloop
endfacet
facet normal 0.6284824500716977 0.7489962177553553 -0.20979627198796538
 outer loop
  vertex 41.74942214998433 35.03192472791636 18.0
  vertex 35.35533905932744 35.355339059327314 0.0
  vertex 27.25000000000006 47.19838450625188 18.0
 endloop
endfacet
facet normal 0.6284824500716967 -0.7489962177553563 -0.20979627198796438
 outer loop
  vertex 27.249999999999964 -47.19838450625193 18.0
  vertex 35.35533905932731 -35.35533905932745 0.0
  vertex 41.74942214998429 -35.031924727916405 18.0
 endloop
endfacet
facet normal -0.6284824500716962 0.748996217755357 -0.20979627198796413
 outer loop
  vertex -27.24999999999995 47.198384506251934 18.0
  vertex -35.355339059327164 35.355339059327584 0.0
  vertex -41.74942214998425 35.031924727916454 18.0
 endloop
endfacet
facet normal 0.18672570585614673 0.9387335152456668 -0.289677230943402
 outer loop
  vertex 19.134171618254612 46.19397662556429 0.0
  vertex 1.6959507069164186e-13 50.0 0.0
  vertex 9.46382568284778 53.672022539165326 18.0
 endloop
endfacet
facet normal -0.1867257058561486 -0.9387335152456665 -0.2896772309434022
 outer loop
  vertex -19.134171618254722 -46.19397662556424 0.0
  vertex -2.312294559186364e-13 -50.0 0.0
  vertex -9.463825682847704 -53.67202253916534 18.0
 endloop
endfacet
facet normal -0.18672570585614015 0.9387335152456682 -0.28967723094340203
 outer loop
  vertex 1.6959507069164186e-13 50.0 0.0
  vertex -19.134171618254257 46.19397662556443 0.0
  vertex -9.463825682847643 53.67202253916535 18.0
 endloop
endfacet
facet normal 0.18672570585613985 -0.9387335152456681 -0.2896772309434025
 outer loop
  vertex -2.312294559186364e-13 -50.0 0.0
  vertex 19.134171618254296 -46.19397662556442 0.0
  vertex 9.463825682847684 -53.67202253916534 18.0
 endloop
endfacet
facet normal -0.3349434905241446 -0.9202496770083998 -0.20236943969245522
 outer loop
  vertex -27.250000000000025 -47.19838450625189 18.0
  vertex -19.134171618254722 -46.19397662556424 0.0
  vertex -9.463825682847704 -53.67202253916534 18.0
 endloop
endfacet
facet normal 0.3349434905241454 0.9202496770083995 -0.202369439692455
 outer loop
  vertex 27.25000000000006 47.19838450625188 18.0
  vertex 19.134171618254612 46.19397662556429 0.0
  vertex 9.46382568284778 53.672022539165326 18.0
 endloop
endfacet
facet normal -0.33494349052414324 0.9202496770084002 -0.20236943969245433
 outer loop
  vertex -9.463825682847643 53.67202253916535 18.0
  vertex -19.134171618254257 46.19397662556443 0.0
  vertex -27.24999999999995 47.198384506251934 18.0
 endloop
endfacet
facet normal 0.33494349052414374 -0.9202496770084001 -0.2023694396924544
 outer loop
  vertex 9.463825682847684 -53.67202253916534 18.0
  vertex 19.134171618254296 -46.19397662556442 0.0
  vertex 27.249999999999964 -47.19838450625193 18.0
 endloop
endfacet
facet normal 1.1034706920306785e-15 0.9798194863290673 -0.19988440211742986
 outer loop
  vertex 9.46382568284778 53.672022539165326 18.0
  vertex 1.6959507069164186e-13 50.0 0.0
  vertex -9.463825682847643 53.67202253916535 18.0
 endloop
endfacet
facet normal 0.0 -0.9798194863290673 -0.19988440211743005
 outer loop
  vertex -9.463825682847704 -53.67202253916534 18.0
  vertex -2.312294559186364e-13 -50.0 0.0
  vertex 9.463825682847684 -53.67202253916534 18.0
 endloop
endfacet
facet normal 0.0 0.0 1.0
 outer loop
  vertex 54.5 -1.334865011070615e-14 18.0
  vertex 35.004531710043416 16.50049054748339 18.0
  vertex 36.8402782136596 -4.364137335251719 18.0
 endloop
endfacet
facet normal 0.0 0.0 1.0
 outer loop
  vertex 20.22353536352303 7.925165076145096 18.0
  vertex 22.822330298059864 -12.69151545761764 18.0
  vertex 36.8402782136596 -4.364137335251719 18.0
 endloop
endfacet
facet normal -0.0 0.0 1.0
 outer loop
  vertex 9.360426726171891 -5.547202646846645 18.0
  vertex 22.822330298059864 -12.69151545761764 18.0
  vertex 20.22353536352303 7.925165076145096 18.0
 endloop
endfacet
facet normal 0.0 0.0 1.0
 outer loop
  vertex 51.21324783283202 18.640097811248925 18.0
  vertex 35.004531710043416 16.50049054748339 18.0
  vertex 54.5 -1.334865011070615e-14 18.0
 endloop
endfacet
facet normal 0.0 -0.0 1.0
 outer loop
  vertex -36.06056800055747 -4.086147995963211 18.0
  vertex -34.19296664134889 14.270733846827216 18.0
  vertex -54.5 3.087718699218149e-14 18.0
 endloop
endfacet
facet normal 0.0 0.0 1.0
 outer loop
  vertex 36.8402782136596 -4.364137335251719 18.0
  vertex 35.004531710043416 16.50049054748339 18.0
  vertex 20.22353536352303 7.925165076145096 18.0
 endloop
endfacet
facet normal 0.0 0.0 1.0
 outer loop
  vertex -54.5 3.087718699218149e-14 18.0
  vertex -34.19296664134889 14.270733846827216 18.0
  vertex -51.21324783283198 18.640097811249 18.0
 endloop
endfacet
facet normal 0.0 0.0 1.0
 outer loop
  vertex -18.742355546889886 7.728977583292819 18.0
  vertex -34.19296664134889 14.270733846827216 18.0
  vertex -36.06056800055747 -4.086147995963211 18.0
 endloop
endfacet
facet normal -0.0 0.0 1.0
 outer loop
  vertex -36.06056800055747 -4.086147995963211 18.0
  vertex -21.83892522463464 -12.050228271155593 18.0
  vertex -18.742355546889886 7.728977583292819 18.0
 endloop
endfacet
facet normal 0.0 0.0 1.0
 outer loop
  vertex 7.707812114349068 -22.073916467190013 18.0
  vertex 14.016803248002876 -38.82805832433198 18.0
  vertex 23.96324783283199 -28.55828669500297 18.0
 endloop
endfacet
facet normal 0.0 0.0 1.0
 outer loop
  vertex 23.96324783283199 -28.55828669500297 18.0
  vertex 22.822330298059864 -12.69151545761764 18.0
  vertex 7.707812114349068 -22.073916467190013 18.0
 endloop
endfacet
facet normal -0.0 0.0 1.0
 outer loop
  vertex -51.21324783283198 18.640097811249 18.0
  vertex -34.19296664134889 14.270733846827216 18.0
  vertex -41.74942214998425 35.031924727916454 18.0
 endloop
endfacet
facet normal 0.0 0.0 1.0
 outer loop
  vertex -41.74942214998425 35.031924727916454 18.0
  vertex -34.19296664134889 14.270733846827216 18.0
  vertex -24.084285677321507 28.056280025108123 18.0
 endloop
endfacet
facet normal 0.0 -0.0 1.0
 outer loop
  vertex -23.96324783283203 -28.55828669500294 18.0
  vertex -21.83892522463464 -12.050228271155593 18.0
  vertex -34.966291752825285 -18.59202354652322 18.0
 endloop
endfacet
facet normal 0.0 0.0 1.0
 outer loop
  vertex -24.084285677321507 28.056280025108123 18.0
  vertex -34.19296664134889 14.270733846827216 18.0
  vertex -18.742355546889886 7.728977583292819 18.0
 endloop
endfacet
facet normal 0.0 0.0 1.0
 outer loop
  vertex -23.96324783283203 -28.55828669500294 18.0
  vertex -9.923950601674193 -24.295703441407444 18.0
  vertex -21.83892522463464 -12.050228271155593 18.0
 endloop
endfacet
facet normal -0.0 0.0 1.0
 outer loop
  vertex -0.6174401195250881 -37.795553600177186 18.0
  vertex 14.016803248002876 -38.82805832433198 18.0
  vertex 7.707812114349068 -22.073916467190013 18.0
 endloop
endfacet
facet normal 0.0 0.0 1.0
 outer loop
  vertex -9.463825682847643 53.67202253916535 18.0
  vertex -0.006458269368100522 37.7467355485618 18.0
  vertex 9.46382568284778 53.672022539165326 18.0
 endloop
endfacet
facet normal 0.0 -0.0 1.0
 outer loop
  vertex -27.250000000000025 -47.19838450625189 18.0
  vertex -23.96324783283203 -28.55828669500294 18.0
  vertex -41.74942214998434 -35.031924727916355 18.0
 endloop
endfacet
facet normal 0.0 0.0 1.0
 outer loop
  vertex 41.74942214998429 -35.031924727916405 18.0
  vertex 23.96324783283199 -28.55828669500297 18.0
  vertex 27.249999999999964 -47.19838450625193 18.0
 endloop
endfacet
facet normal 0.0 0.0 1.0
 outer loop
  vertex 27.25000000000006 47.19838450625188 18.0
  vertex 24.58785822056847 29.284408482620837 18.0
  vertex 41.74942214998433 35.03192472791636 18.0
 endloop
endfacet
facet normal 0.0 0.0 1.0
 outer loop
  vertex 54.5 -1.334865011070615e-14 18.0
  vertex 36.8402782136596 -4.364137335251719 18.0
  vertex 51.21324783283201 -18.64009781124894 18.0
 endloop
endfacet
facet normal 0.0 -0.0 1.0
 outer loop
  vertex -51.21324783283202 -18.640097811248918 18.0
  vertex -36.06056800055747 -4.086147995963211 18.0
  vertex -54.5 3.087718699218149e-14 18.0
 endloop
endfacet
facet normal -0.0 0.0 1.0
 outer loop
  vertex -41.74942214998425 35.031924727916454 18.0
  vertex -24.084285677321507 28.056280025108123 18.0
  vertex -27.24999999999995 47.198384506251934 18.0
 endloop
endfacet
facet normal 0.0 0.0 1.0
 outer loop
  vertex 9.463825682847684 -53.67202253916534 18.0
  vertex -0.6174401195250881 -37.795553600177186 18.0
  vertex -9.463825682847704 -53.67202253916534 18.0
 endloop
endfacet
facet normal 0.0 0.0 1.0
 outer loop
  vertex 0.9704692610518058 7.987241490601669 18.0
  vertex -18.742355546889886 7.728977583292819 18.0
  vertex -6.37147861365678 -6.8969738477756835 18.0
 endloop
endfacet
facet normal 0.0 0.0 1.0
 outer loop
  vertex 0.9704692610518058 7.987241490601669 18.0
  vertex -6.37147861365678 -6.8969738477756835 18.0
  vertex 9.360426726171891 -5.547202646846645 18.0
 endloop
endfacet
facet normal 0.0 -0.0 1.0
 outer loop
  vertex -18.742355546889886 7.728977583292819 18.0
  vertex -9.027833740282725 22.485261047096465 18.0
  vertex -24.084285677321507 28.056280025108123 18.0
 endloop
endfacet
facet normal 0.0 0.0 1.0
 outer loop
  vertex 0.9704692610518058 7.987241490601669 18.0
  vertex 9.360426726171891 -5.547202646846645 18.0
  vertex 20.22353536352303 7.925165076145096 18.0
 endloop
endfacet
facet normal 0.0 0.0 1.0
 outer loop
  vertex 7.707812114349068 -22.073916467190013 18.0
  vertex 22.822330298059864 -12.69151545761764 18.0
  vertex 9.360426726171891 -5.547202646846645 18.0
 endloop
endfacet
facet normal 0.0 0.0 1.0
 outer loop
  vertex 41.74942214998433 35.03192472791636 18.0
  vertex 35.004531710043416 16.50049054748339 18.0
  vertex 51.21324783283202 18.640097811248925 18.0
 endloop
endfacet
facet normal -0.0 0.0 1.0
 outer loop
  vertex 24.58785822056847 29.284408482620837 18.0
  vertex 35.004531710043416 16.50049054748339 18.0
  vertex 41.74942214998433 35.03192472791636 18.0
 endloop
endfacet
facet normal 0.0 0.0 1.0
 outer loop
  vertex 8.314946167987841 24.750835901280965 18.0
  vertex 0.9704692610518058 7.987241490601669 18.0
  vertex 20.22353536352303 7.925165076145096 18.0
 endloop
endfacet
facet normal 0.0 0.0 1.0
 outer loop
  vertex 8.314946167987841 24.750835901280965 18.0
  vertex -9.027833740282725 22.485261047096465 18.0
  vertex 0.9704692610518058 7.987241490601669 18.0
 endloop
endfacet
facet normal 0.0 -0.0 1.0
 outer loop
  vertex -34.966291752825285 -18.59202354652322 18.0
  vertex -21.83892522463464 -12.050228271155593 18.0
  vertex -36.06056800055747 -4.086147995963211 18.0
 endloop
endfacet
facet normal 0.0 0.0 1.0
 outer loop
  vertex -0.006458269368100522 37.7467355485618 18.0
  vertex -9.027833740282725 22.485261047096465 18.0
  vertex 8.314946167987841 24.750835901280965 18.0
 endloop
endfacet
facet normal 0.0 0.0 1.0
 outer loop
  vertex -0.006458269368100522 37.7467355485618 18.0
  vertex -14.305201495457924 39.106114026935884 18.0
  vertex -9.027833740282725 22.485261047096465 18.0
 endloop
endfacet
facet normal -0.0 0.0 1.0
 outer loop
  vertex -6.37147861365678 -6.8969738477756835 18.0
  vertex 7.707812114349068 -22.073916467190013 18.0
  vertex 9.360426726171891 -5.547202646846645 18.0
 endloop
endfacet
facet normal 0.0 0.0 1.0
 outer loop
  vertex -0.6174401195250881 -37.795553600177186 18.0
  vertex -9.923950601674193 -24.295703441407444 18.0
  vertex -14.460423933745698 -38.399261767143265 18.0
 endloop
endfacet
facet normal 0.0 0.0 1.0
 outer loop
  vertex 0.9704692610518058 7.987241490601669 18.0
  vertex -9.027833740282725 22.485261047096465 18.0
  vertex -18.742355546889886 7.728977583292819 18.0
 endloop
endfacet
facet normal 0.0 0.0 1.0
 outer loop
  vertex 7.707812114349068 -22.073916467190013 18.0
  vertex -9.923950601674193 -24.295703441407444 18.0
  vertex -0.6174401195250881 -37.795553600177186 18.0
 endloop
endfacet
facet normal -0.0 0.0 1.0
 outer loop
  vertex 8.314946167987841 24.750835901280965 18.0
  vertex 20.22353536352303 7.925165076145096 18.0
  vertex 24.58785822056847 29.284408482620837 18.0
 endloop
endfacet
facet normal 0.0 0.0 1.0
 outer loop
  vertex -9.027833740282725 22.485261047096465 18.0
  vertex -14.305201495457924 39.106114026935884 18.0
  vertex -24.084285677321507 28.056280025108123 18.0
 endloop
endfacet
facet normal 0.0 0.0 1.0
 outer loop
  vertex 20.22353536352303 7.925165076145096 18.0
  vertex 35.004531710043416 16.50049054748339 18.0
  vertex 24.58785822056847 29.284408482620837 18.0
 endloop
endfacet
facet normal 0.0 0.0 1.0
 outer loop
  vertex -18.742355546889886 7.728977583292819 18.0
  vertex -21.83892522463464 -12.050228271155593 18.0
  vertex -6.37147861365678 -6.8969738477756835 18.0
 endloop
endfacet
facet normal 0.0 0.0 1.0
 outer loop
  vertex -23.96324783283203 -28.55828669500294 18.0
  vertex -34.966291752825285 -18.59202354652322 18.0
  vertex -41.74942214998434 -35.031924727916355 18.0
 endloop
endfacet
facet normal 0.0 0.0 1.0
 outer loop
  vertex -9.463825682847704 -53.67202253916534 18.0
  vertex -14.460423933745698 -38.399261767143265 18.0
  vertex -27.250000000000025 -47.19838450625189 18.0
 endloop
endfacet
facet normal 0.0 0.0 1.0
 outer loop
  vertex 9.46382568284778 53.672022539165326 18.0
  vertex 14.408935923775182 39.56189865905089 18.0
  vertex 27.25000000000006 47.19838450625188 18.0
 endloop
endfacet
facet normal -0.0 0.0 1.0
 outer loop
  vertex -27.24999999999995 47.198384506251934 18.0
  vertex -14.305201495457924 39.106114026935884 18.0
  vertex -9.463825682847643 53.67202253916535 18.0
 endloop
endfacet
facet normal 0.0 0.0 1.0
 outer loop
  vertex 23.96324783283199 -28.55828669500297 18.0
  vertex 14.016803248002876 -38.82805832433198 18.0
  vertex 27.249999999999964 -47.19838450625193 18.0
 endloop
endfacet
facet normal 0.0 0.0 1.0
 outer loop
  vertex 51.21324783283201 -18.64009781124894 18.0
  vertex 35.891994831526695 -20.424795607815785 18.0
  vertex 41.74942214998429 -35.031924727916405 18.0
 endloop
endfacet
facet normal 0.0 0.0 1.0
 outer loop
  vertex -9.463825682847643 53.67202253916535 18.0
  vertex -14.305201495457924 39.106114026935884 18.0
  vertex -0.006458269368100522 37.7467355485618 18.0
 endloop
endfacet
facet normal 0.0 0.0 1.0
 outer loop
  vertex 27.249999999999964 -47.19838450625193 18.0
  vertex 14.016803248002876 -38.82805832433198 18.0
  vertex 9.463825682847684 -53.67202253916534 18.0
 endloop
endfacet
facet normal 0.0 0.0 1.0
 outer loop
  vertex 27.25000000000006 47.19838450625188 18.0
  vertex 14.408935923775182 39.56189865905089 18.0
  vertex 24.58785822056847 29.284408482620837 18.0
 endloop
endfacet
facet normal 0.0 0.0 1.0
 outer loop
  vertex -0.006458269368100522 37.7467355485618 18.0
  vertex 14.408935923775182 39.56189865905089 18.0
  vertex 9.46382568284778 53.672022539165326 18.0
 endloop
endfacet
facet normal 0.0 0.0 1.0
 outer loop
  vertex -51.21324783283202 -18.640097811248918 18.0
  vertex -34.966291752825285 -18.59202354652322 18.0
  vertex -36.06056800055747 -4.086147995963211 18.0
 endloop
endfacet
facet normal 0.0 0.0 1.0
 outer loop
  vertex 41.74942214998429 -35.031924727916405 18.0
  vertex 35.891994831526695 -20.424795607815785 18.0
  vertex 23.96324783283199 -28.55828669500297 18.0
 endloop
endfacet
facet normal 0.0 -0.0 1.0
 outer loop
  vertex -24.084285677321507 28.056280025108123 18.0
  vertex -14.305201495457924 39.106114026935884 18.0
  vertex -27.24999999999995 47.198384506251934 18.0
 endloop
endfacet
facet normal 0.0 0.0 1.0
 outer loop
  vertex -27.250000000000025 -47.19838450625189 18.0
  vertex -14.460423933745698 -38.399261767143265 18.0
  vertex -23.96324783283203 -28.55828669500294 18.0
 endloop
endfacet
facet normal 0.0 0.0 1.0
 outer loop
  vertex 36.8402782136596 -4.364137335251719 18.0
  vertex 35.891994831526695 -20.424795607815785 18.0
  vertex 51.21324783283201 -18.64009781124894 18.0
 endloop
endfacet
facet normal 0.0 -0.0 1.0
 outer loop
  vertex -41.74942214998434 -35.031924727916355 18.0
  vertex -34.966291752825285 -18.59202354652322 18.0
  vertex -51.21324783283202 -18.640097811248918 18.0
 endloop
endfacet
facet normal 0.0 0.0 1.0
 outer loop
  vertex -0.6174401195250881 -37.795553600177186 18.0
  vertex -14.460423933745698 -38.399261767143265 18.0
  vertex -9.463825682847704 -53.67202253916534 18.0
 endloop
endfacet
facet normal 0.0 -0.0 1.0
 outer loop
  vertex 9.463825682847684 -53.67202253916534 18.0
  vertex 14.016803248002876 -38.82805832433198 18.0
  vertex -0.6174401195250881 -37.795553600177186 18.0
 endloop
endfacet
facet normal -0.0 0.0 1.0
 outer loop
  vertex -21.83892522463464 -12.050228271155593 18.0
  vertex -9.923950601674193 -24.295703441407444 18.0
  vertex -6.37147861365678 -6.8969738477756835 18.0
 endloop
endfacet
facet normal 0.0 -0.0 1.0
 outer loop
  vertex -14.460423933745698 -38.399261767143265 18.0
  vertex -9.923950601674193 -24.295703441407444 18.0
  vertex -23.96324783283203 -28.55828669500294 18.0
 endloop
endfacet
facet normal 0.0 0.0 1.0
 outer loop
  vertex -6.37147861365678 -6.8969738477756835 18.0
  vertex -9.923950601674193 -24.295703441407444 18.0
  vertex 7.707812114349068 -22.073916467190013 18.0
 endloop
endfacet
facet normal -0.0 0.0 1.0
 outer loop
  vertex -0.006458269368100522 37.7467355485618 18.0
  vertex 8.314946167987841 24.750835901280965 18.0
  vertex 14.408935923775182 39.56189865905089 18.0
 endloop
endfacet
facet normal 0.0 0.0 1.0
 outer loop
  vertex 14.408935923775182 39.56189865905089 18.0
  vertex 8.314946167987841 24.750835901280965 18.0
  vertex 24.58785822056847 29.284408482620837 18.0
 endloop
endfacet
facet normal 0.0 0.0 1.0
 outer loop
  vertex 36.8402782136596 -4.364137335251719 18.0
  vertex 22.822330298059864 -12.69151545761764 18.0
  vertex 35.891994831526695 -20.424795607815785 18.0
 endloop
endfacet
facet normal 0.0 0.0 1.0
 outer loop
  vertex 35.891994831526695 -20.424795607815785 18.0
  vertex 22.822330298059864 -12.69151545761764 18.0
  vertex 23.96324783283199 -28.55828669500297 18.0
 endloop
endfacet
facet normal 0.0 0.0 -1.0
 outer loop
  vertex -8.36180891513561 -28.83534653220118 0.0
  vertex -27.10182334032075 -19.712839934067446 0.0
  vertex -17.50693506763073 -7.185561660072919 0.0
 endloop
endfacet
facet normal -0.0 0.0 -1.0
 outer loop
  vertex -1.9303582780905875 -10.063452920303202 0.0
  vertex -8.36180891513561 -28.83534653220118 0.0
  vertex -17.50693506763073 -7.185561660072919 0.0
 endloop
endfacet
facet normal 0.0 0.0 -1.0
 outer loop
  vertex -27.10182334032075 -19.712839934067446 0.0
  vertex -8.36180891513561 -28.83534653220118 0.0
  vertex -22.48828573325967 -32.52437553779001 0.0
 endloop
endfacet
facet normal 0.0 0.0 -1.0
 outer loop
  vertex -31.52630961100245 21.065206614502003 0.0
  vertex -18.027473654576276 27.927477203429454 0.0
  vertex -13.769593574676032 9.276698844404434 0.0
 endloop
endfacet
facet normal 0.0 0.0 -1.0
 outer loop
  vertex -32.026640357393056 5.533867031721077 0.0
  vertex -31.52630961100245 21.065206614502003 0.0
  vertex -13.769593574676032 9.276698844404434 0.0
 endloop
endfacet
facet normal -0.0 0.0 -1.0
 outer loop
  vertex 35.35533905932731 -35.35533905932745 0.0
  vertex 19.134171618254296 -46.19397662556442 0.0
  vertex 17.858219864017276 -26.72671475943573 0.0
 endloop
endfacet
facet normal 0.0 0.0 -1.0
 outer loop
  vertex -35.3553390593276 -35.35533905932715 0.0
  vertex -46.193976625564495 -19.13417161825411 0.0
  vertex -27.10182334032075 -19.712839934067446 0.0
 endloop
endfacet
facet normal 0.0 0.0 -1.0
 outer loop
  vertex 50.0 -1.2246467991473532e-14 0.0
  vertex 46.193976625564325 -19.13417161825452 0.0
  vertex 31.526309611002578 -6.270972879468598 0.0
 endloop
endfacet
facet normal 0.0 0.0 -1.0
 outer loop
  vertex -2.312294559186364e-13 -50.0 0.0
  vertex -19.134171618254722 -46.19397662556424 0.0
  vertex -8.36180891513561 -28.83534653220118 0.0
 endloop
endfacet
facet normal 0.0 0.0 -1.0
 outer loop
  vertex 1.6959507069164186e-13 50.0 0.0
  vertex 19.134171618254612 46.19397662556429 0.0
  vertex 6.751015065979249 33.4074679441669 0.0
 endloop
endfacet
facet normal 0.0 -0.0 -1.0
 outer loop
  vertex 35.35533905932744 35.355339059327314 0.0
  vertex 46.19397662556436 19.13417161825444 0.0
  vertex 29.12332548130408 19.530854357958383 0.0
 endloop
endfacet
facet normal 0.0 0.0 -1.0
 outer loop
  vertex -35.355339059327164 35.355339059327584 0.0
  vertex -19.134171618254257 46.19397662556443 0.0
  vertex -18.027473654576276 27.927477203429454 0.0
 endloop
endfacet
facet normal 0.0 0.0 -1.0
 outer loop
  vertex -50.0 3.6139460187578685e-13 0.0
  vertex -46.19397662556422 19.13417161825478 0.0
  vertex -32.026640357393056 5.533867031721077 0.0
 endloop
endfacet
facet normal 0.0 0.0 -1.0
 outer loop
  vertex -8.36180891513561 -28.83534653220118 0.0
  vertex -1.9303582780905875 -10.063452920303202 0.0
  vertex 6.01743456618032 -22.28183947004881 0.0
 endloop
endfacet
facet normal 0.0 0.0 -1.0
 outer loop
  vertex -13.769593574676032 9.276698844404434 0.0
  vertex 6.574397041179763 6.304462576590291 0.0
  vertex -1.9303582780905875 -10.063452920303202 0.0
 endloop
endfacet
facet normal 0.0 0.0 -1.0
 outer loop
  vertex -32.026640357393056 5.533867031721077 0.0
  vertex -13.769593574676032 9.276698844404434 0.0
  vertex -17.50693506763073 -7.185561660072919 0.0
 endloop
endfacet
facet normal 0.0 -0.0 -1.0
 outer loop
  vertex -32.026640357393056 5.533867031721077 0.0
  vertex -17.50693506763073 -7.185561660072919 0.0
  vertex -34.56587507818181 -8.099741236134607 0.0
 endloop
endfacet
facet normal 0.0 0.0 -1.0
 outer loop
  vertex 17.858219864017276 -26.72671475943573 0.0
  vertex 15.677345793385957 -10.26050891857492 0.0
  vertex 31.52630961100254 -21.065206614501847 0.0
 endloop
endfacet
facet normal 0.0 0.0 -1.0
 outer loop
  vertex 15.677345793385957 -10.26050891857492 0.0
  vertex 31.526309611002578 -6.270972879468598 0.0
  vertex 31.52630961100254 -21.065206614501847 0.0
 endloop
endfacet
facet normal 0.0 0.0 -1.0
 outer loop
  vertex -13.769593574676032 9.276698844404434 0.0
  vertex -18.027473654576276 27.927477203429454 0.0
  vertex -1.940171523854758 22.28927954666159 0.0
 endloop
endfacet
facet normal 0.0 0.0 -1.0
 outer loop
  vertex -17.50693506763073 -7.185561660072919 0.0
  vertex -27.10182334032075 -19.712839934067446 0.0
  vertex -34.56587507818181 -8.099741236134607 0.0
 endloop
endfacet
facet normal 0.0 0.0 -1.0
 outer loop
  vertex -1.9303582780905875 -10.063452920303202 0.0
  vertex 6.574397041179763 6.304462576590291 0.0
  vertex 15.677345793385957 -10.26050891857492 0.0
 endloop
endfacet
facet normal 0.0 0.0 -1.0
 outer loop
  vertex -13.769593574676032 9.276698844404434 0.0
  vertex -1.940171523854758 22.28927954666159 0.0
  vertex 6.574397041179763 6.304462576590291 0.0
 endloop
endfacet
facet normal 0.0 0.0 -1.0
 outer loop
  vertex -27.10182334032075 -19.712839934067446 0.0
  vertex -46.193976625564495 -19.13417161825411 0.0
  vertex -34.56587507818181 -8.099741236134607 0.0
 endloop
endfacet
facet normal 0.0 -0.0 -1.0
 outer loop
  vertex 17.858219864017276 -26.72671475943573 0.0
  vertex 19.134171618254296 -46.19397662556442 0.0
  vertex 6.843774366724567 -35.52317421972898 0.0
 endloop
endfacet
facet normal 0.0 0.0 -1.0
 outer loop
  vertex -2.312294559186364e-13 -50.0 0.0
  vertex -8.36180891513561 -28.83534653220118 0.0
  vertex 6.843774366724567 -35.52317421972898 0.0
 endloop
endfacet
facet normal -0.0 0.0 -1.0
 outer loop
  vertex 50.0 -1.2246467991473532e-14 0.0
  vertex 31.526309611002578 -6.270972879468598 0.0
  vertex 37.187817755936514 7.397116867516587 0.0
 endloop
endfacet
facet normal 0.0 0.0 -1.0
 outer loop
  vertex -19.134171618254722 -46.19397662556424 0.0
  vertex -35.3553390593276 -35.35533905932715 0.0
  vertex -22.48828573325967 -32.52437553779001 0.0
 endloop
endfacet
facet normal 0.0 0.0 -1.0
 outer loop
  vertex -46.19397662556422 19.13417161825478 0.0
  vertex -35.355339059327164 35.355339059327584 0.0
  vertex -31.52630961100245 21.065206614502003 0.0
 endloop
endfacet
facet normal 0.0 0.0 -1.0
 outer loop
  vertex 35.35533905932731 -35.35533905932745 0.0
  vertex 17.858219864017276 -26.72671475943573 0.0
  vertex 31.52630961100254 -21.065206614501847 0.0
 endloop
endfacet
facet normal 0.0 0.0 -1.0
 outer loop
  vertex -8.36180891513561 -28.83534653220118 0.0
  vertex -19.134171618254722 -46.19397662556424 0.0
  vertex -22.48828573325967 -32.52437553779001 0.0
 endloop
endfacet
facet normal -0.0 0.0 -1.0
 outer loop
  vertex 19.134171618254296 -46.19397662556442 0.0
  vertex -2.312294559186364e-13 -50.0 0.0
  vertex 6.843774366724567 -35.52317421972898 0.0
 endloop
endfacet
facet normal 0.0 0.0 -1.0
 outer loop
  vertex 46.193976625564325 -19.13417161825452 0.0
  vertex 35.35533905932731 -35.35533905932745 0.0
  vertex 31.52630961100254 -21.065206614501847 0.0
 endloop
endfacet
facet normal 0.0 -0.0 -1.0
 outer loop
  vertex 46.19397662556436 19.13417161825444 0.0
  vertex 50.0 -1.2246467991473532e-14 0.0
  vertex 37.187817755936514 7.397116867516587 0.0
 endloop
endfacet
facet normal 0.0 0.0 -1.0
 outer loop
  vertex 19.134171618254612 46.19397662556429 0.0
  vertex 35.35533905932744 35.355339059327314 0.0
  vertex 20.77968254985532 30.991646580078132 0.0
 endloop
endfacet
facet normal 0.0 0.0 -1.0
 outer loop
  vertex 35.35533905932744 35.355339059327314 0.0
  vertex 29.12332548130408 19.530854357958383 0.0
  vertex 20.77968254985532 30.991646580078132 0.0
 endloop
endfacet
facet normal 0.0 0.0 -1.0
 outer loop
  vertex -19.134171618254257 46.19397662556443 0.0
  vertex 1.6959507069164186e-13 50.0 0.0
  vertex -7.397116867516459 37.18781775593655 0.0
 endloop
endfacet
facet normal 0.0 -0.0 -1.0
 outer loop
  vertex 1.6959507069164186e-13 50.0 0.0
  vertex 6.751015065979249 33.4074679441669 0.0
  vertex -7.397116867516459 37.18781775593655 0.0
 endloop
endfacet
facet normal 0.0 0.0 -1.0
 outer loop
  vertex -18.027473654576276 27.927477203429454 0.0
  vertex -19.134171618254257 46.19397662556443 0.0
  vertex -7.397116867516459 37.18781775593655 0.0
 endloop
endfacet
facet normal 0.0 0.0 -1.0
 outer loop
  vertex -35.355339059327164 35.355339059327584 0.0
  vertex -18.027473654576276 27.927477203429454 0.0
  vertex -31.52630961100245 21.065206614502003 0.0
 endloop
endfacet
facet normal 0.0 0.0 -1.0
 outer loop
  vertex -32.026640357393056 5.533867031721077 0.0
  vertex -46.19397662556422 19.13417161825478 0.0
  vertex -31.52630961100245 21.065206614502003 0.0
 endloop
endfacet
facet normal 0.0 0.0 -1.0
 outer loop
  vertex -46.193976625564495 -19.13417161825411 0.0
  vertex -50.0 3.6139460187578685e-13 0.0
  vertex -34.56587507818181 -8.099741236134607 0.0
 endloop
endfacet
facet normal 0.0 0.0 -1.0
 outer loop
  vertex -50.0 3.6139460187578685e-13 0.0
  vertex -32.026640357393056 5.533867031721077 0.0
  vertex -34.56587507818181 -8.099741236134607 0.0
 endloop
endfacet
facet normal 0.0 0.0 -1.0
 outer loop
  vertex 29.12332548130408 19.530854357958383 0.0
  vertex 46.19397662556436 19.13417161825444 0.0
  vertex 37.187817755936514 7.397116867516587 0.0
 endloop
endfacet
facet normal 0.0 0.0 -1.0
 outer loop
  vertex -35.3553390593276 -35.35533905932715 0.0
  vertex -27.10182334032075 -19.712839934067446 0.0
  vertex -22.48828573325967 -32.52437553779001 0.0
 endloop
endfacet
facet normal 0.0 -0.0 -1.0
 outer loop
  vertex 31.526309611002578 -6.270972879468598 0.0
  vertex 46.193976625564325 -19.13417161825452 0.0
  vertex 31.52630961100254 -21.065206614501847 0.0
 endloop
endfacet
facet normal 0.0 0.0 -1.0
 outer loop
  vertex 6.751015065979249 33.4074679441669 0.0
  vertex 19.134171618254612 46.19397662556429 0.0
  vertex 20.77968254985532 30.991646580078132 0.0
 endloop
endfacet
facet normal 0.0 -0.0 -1.0
 outer loop
  vertex -13.769593574676032 9.276698844404434 0.0
  vertex -1.9303582780905875 -10.063452920303202 0.0
  vertex -17.50693506763073 -7.185561660072919 0.0
 endloop
endfacet
facet normal 0.0 0.0 -1.0
 outer loop
  vertex 6.574397041179763 6.304462576590291 0.0
  vertex -1.940171523854758 22.28927954666159 0.0
  vertex 13.877058008639978 19.482438524263298 0.0
 endloop
endfacet
facet normal 0.0 -0.0 -1.0
 outer loop
  vertex 15.677345793385957 -10.26050891857492 0.0
  vertex 17.858219864017276 -26.72671475943573 0.0
  vertex 6.01743456618032 -22.28183947004881 0.0
 endloop
endfacet
facet normal 0.0 0.0 -1.0
 outer loop
  vertex -1.9303582780905875 -10.063452920303202 0.0
  vertex 15.677345793385957 -10.26050891857492 0.0
  vertex 6.01743456618032 -22.28183947004881 0.0
 endloop
endfacet
facet normal -0.0 0.0 -1.0
 outer loop
  vertex 6.751015065979249 33.4074679441669 0.0
  vertex -1.940171523854758 22.28927954666159 0.0
  vertex -7.397116867516459 37.18781775593655 0.0
 endloop
endfacet
facet normal 0.0 0.0 -1.0
 outer loop
  vertex -1.940171523854758 22.28927954666159 0.0
  vertex -18.027473654576276 27.927477203429454 0.0
  vertex -7.397116867516459 37.18781775593655 0.0
 endloop
endfacet
facet normal 0.0 0.0 -1.0
 outer loop
  vertex 21.97409943737621 4.3709201401245155 0.0
  vertex 6.574397041179763 6.304462576590291 0.0
  vertex 13.877058008639978 19.482438524263298 0.0
 endloop
endfacet
facet normal 0.0 0.0 -1.0
 outer loop
  vertex 29.12332548130408 19.530854357958383 0.0
  vertex 21.97409943737621 4.3709201401245155 0.0
  vertex 13.877058008639978 19.482438524263298 0.0
 endloop
endfacet
facet normal 0.0 0.0 -1.0
 outer loop
  vertex -1.940171523854758 22.28927954666159 0.0
  vertex 6.751015065979249 33.4074679441669 0.0
  vertex 13.877058008639978 19.482438524263298 0.0
 endloop
endfacet
facet normal 0.0 0.0 -1.0
 outer loop
  vertex 15.677345793385957 -10.26050891857492 0.0
  vertex 6.574397041179763 6.304462576590291 0.0
  vertex 21.97409943737621 4.3709201401245155 0.0
 endloop
endfacet
facet normal -0.0 0.0 -1.0
 outer loop
  vertex 31.526309611002578 -6.270972879468598 0.0
  vertex 15.677345793385957 -10.26050891857492 0.0
  vertex 21.97409943737621 4.3709201401245155 0.0
 endloop
endfacet
facet normal 0.0 -0.0 -1.0
 outer loop
  vertex 29.12332548130408 19.530854357958383 0.0
  vertex 37.187817755936514 7.397116867516587 0.0
  vertex 21.97409943737621 4.3709201401245155 0.0
 endloop
endfacet
facet normal 0.0 0.0 -1.0
 outer loop
  vertex 37.187817755936514 7.397116867516587 0.0
  vertex 31.526309611002578 -6.270972879468598 0.0
  vertex 21.97409943737621 4.3709201401245155 0.0
 endloop
endfacet
facet normal 0.0 0.0 -1.0
 outer loop
  vertex 6.843774366724567 -35.52317421972898 0.0
  vertex -8.36180891513561 -28.83534653220118 0.0
  vertex 6.01743456618032 -22.28183947004881 0.0
 endloop
endfacet
facet normal -0.0 0.0 -1.0
 outer loop
  vertex 17.858219864017276 -26.72671475943573 0.0
  vertex 6.843774366724567 -35.52317421972898 0.0
  vertex 6.01743456618032 -22.28183947004881 0.0
 endloop
endfacet
facet normal 0.0 0.0 -1.0
 outer loop
  vertex 6.751015065979249 33.4074679441669 0.0
  vertex 20.77968254985532 30.991646580078132 0.0
  vertex 13.877058008639978 19.482438524263298 0.0
 endloop
endfacet
facet normal 0.0 -0.0 -1.0
 outer loop
  vertex 20.77968254985532 30.991646580078132 0.0
  vertex 29.12332548130408 19.530854357958383 0.0
  vertex 13.877058008639978 19.482438524263298 0.0
 endloop
endfacet
endsolid
